<svg width="1120" height="928.0000000000001" xmlns="http://www.w3.org/2000/svg" version="1.0" preserveAspectRatio="xMidYMid meet">
 <g>
  <title>Layer 1</title>
  <g transform="translate(0, 928) scale(0.1, -0.1)" fill="#000000" id="svg_1">
   <path stroke="#ffffff" fill="#ffffff" d="m4785,8914c-395,-19 -633,-44 -707,-76c-50,-21 -112,-81 -128,-124c-16,-41 -12,-201 5,-234c28,-55 52,-60 236,-50c90,5 393,14 673,20c588,12 891,8 1579,-21c359,-15 330,-29 331,163c1,122 -1,136 -22,169c-40,66 -100,91 -257,108c-329,37 -470,43 -1050,45c-324,2 -621,2 -660,0z" id="svg_2"/>
   <path stroke="#ffffff" fill="#ffffff" d="m2710,8763c-87,-32 -149,-83 -185,-152c-47,-92 -20,-238 65,-352c71,-94 326,-341 670,-651c208,-186 935,-918 1310,-1318c85,-91 193,-206 240,-255c47,-50 114,-122 150,-160c35,-39 98,-106 140,-150c41,-44 102,-110 135,-145c102,-112 204,-220 340,-360c71,-74 245,-254 385,-400c415,-432 1128,-1152 1415,-1430c88,-85 221,-214 295,-286c236,-229 421,-394 441,-394c32,0 23,50 -19,111c-33,48 -300,382 -358,449c-12,14 -57,68 -100,120c-44,52 -91,109 -105,125c-15,17 -74,84 -132,150c-229,262 -372,423 -421,475c-28,30 -94,102 -146,160c-94,105 -119,132 -265,290c-43,47 -99,108 -124,135c-25,28 -98,106 -162,175c-142,153 -328,363 -531,598c-83,97 -186,215 -228,262c-41,47 -100,115 -130,150c-30,35 -71,83 -91,105c-20,22 -118,137 -219,255c-102,118 -187,217 -190,220c-3,3 -52,61 -110,130c-57,69 -109,130 -115,136c-5,6 -28,32 -50,59c-22,26 -45,53 -50,59c-6,6 -33,38 -60,71c-57,68 -68,81 -161,191c-208,244 -372,450 -592,744c-101,135 -189,252 -196,260c-6,9 -27,38 -46,65c-75,110 -175,234 -248,309c-70,71 -210,186 -228,186c-4,0 -15,6 -23,14c-32,27 -143,56 -215,55c-39,0 -78,-3 -86,-6zm201,-301c137,-90 455,-459 447,-516c-5,-37 -56,-32 -119,9c-129,88 -322,272 -390,374c-63,96 -20,188 62,133z" id="svg_3"/>
   <path stroke="#ffffff" fill="#ffffff" d="m5010,8349c-547,-11 -1172,-46 -1265,-72c-35,-9 -54,-21 -65,-39c-13,-25 -12,-29 24,-83c49,-74 224,-289 276,-340l41,-40l987,0c1490,-1 2014,-4 2008,-13c-6,-10 -34,-17 -416,-112c-135,-34 -260,-66 -277,-71c-18,-5 -48,-13 -65,-18c-18,-5 -76,-21 -128,-36c-52,-15 -167,-46 -255,-70c-167,-45 -200,-54 -380,-105c-60,-17 -123,-35 -140,-39c-198,-53 -586,-188 -666,-232c-38,-21 -44,-29 -47,-61c-5,-55 31,-112 109,-171c49,-37 96,-35 206,7c124,47 212,74 503,156c140,39 298,84 350,100c52,16 165,49 250,74c294,85 366,107 572,176c206,69 333,117 400,151c10,5 36,9 58,9c32,0 40,-4 40,-18c0,-10 -8,-24 -17,-32c-29,-25 -225,-110 -357,-156c-39,-14 -80,-29 -91,-34c-30,-13 -375,-126 -490,-160c-33,-10 -130,-39 -215,-65c-245,-73 -298,-89 -590,-171c-397,-111 -438,-133 -427,-230c7,-68 84,-153 154,-170c16,-4 106,20 256,69c128,42 293,94 367,117c74,23 146,45 160,50c14,4 43,13 65,19c22,6 117,34 210,62c94,28 215,64 270,79c152,44 325,106 480,172c155,67 218,82 229,52c13,-33 -43,-72 -185,-130c-125,-50 -946,-325 -1179,-394c-58,-17 -116,-35 -130,-40c-14,-4 -61,-18 -105,-30c-285,-78 -355,-110 -355,-164c0,-37 97,-151 170,-199c32,-22 61,-21 113,2c62,28 162,64 342,122c437,142 730,240 820,274c55,21 140,53 189,72c49,18 94,37 100,42c30,24 177,91 200,91c37,0 34,-31 -6,-66c-31,-25 -285,-155 -388,-198c-175,-72 -598,-223 -835,-298c-88,-27 -179,-56 -201,-63c-59,-19 -105,-43 -136,-73c-22,-21 -28,-35 -28,-70c0,-42 4,-48 79,-123c88,-89 105,-94 174,-55c37,21 168,71 527,203c52,19 249,93 437,164c188,71 351,129 362,129c31,0 26,-24 -11,-56c-29,-24 -87,-54 -293,-149c-101,-47 -516,-212 -857,-341c-96,-36 -118,-56 -118,-105c0,-49 10,-69 67,-136c52,-62 97,-81 152,-64c20,6 65,19 101,30c174,52 293,90 495,158c368,125 375,127 375,100c0,-27 -46,-61 -139,-104c-53,-24 -105,-48 -116,-53c-36,-17 -256,-97 -438,-161c-97,-34 -186,-70 -197,-79c-24,-21 -26,-57 -3,-90c53,-80 142,-140 208,-140c20,0 82,16 138,36c56,20 140,49 187,66c114,40 390,125 434,134c31,5 36,4 36,-13c0,-36 -48,-67 -205,-132c-63,-27 -113,-45 -230,-83c-222,-73 -265,-104 -251,-183c10,-53 109,-151 163,-161c40,-8 32,-10 278,84c138,53 245,75 245,50c0,-36 -91,-90 -282,-168c-120,-49 -148,-109 -86,-185c64,-78 182,-206 367,-397c99,-102 130,-128 151,-128c57,0 55,-33 58,819c2,711 4,787 19,803c34,38 335,114 582,148c176,24 487,10 601,-27c112,-36 253,-124 307,-191c135,-168 149,-437 37,-733c-32,-84 -111,-223 -182,-319c-71,-96 -363,-388 -512,-512c-157,-130 -171,-148 -144,-187c33,-47 113,-20 294,99c329,217 619,544 765,863c44,98 60,154 80,280c34,218 -9,437 -115,592c-37,54 -151,168 -204,204c-92,63 -265,144 -351,165c-56,14 -270,36 -348,36c-197,0 -463,-32 -577,-71c-92,-30 -184,-38 -221,-19c-19,10 -19,31 -19,907l0,896l25,52c63,134 59,262 -12,344c-70,82 -155,101 -598,130c-594,40 -1133,53 -1745,40z" id="svg_4"/>
   <path stroke="#ffffff" fill="#ffffff" d="m4247,7670c-67,-4 -82,-8 -98,-29c-36,-45 -37,-43 132,-236c143,-163 151,-171 188,-190c23,-11 45,-15 70,-10c37,6 497,132 611,167c76,23 283,80 525,143c94,24 193,51 220,60c94,32 117,60 72,89c-19,13 -131,15 -832,13c-446,-1 -845,-4 -888,-7z" id="svg_5"/>
   <path stroke="#ffffff" fill="#ffffff" d="m3114,7490c-43,-17 -195,-279 -339,-585c-97,-205 -93,-195 -151,-413c-72,-270 -82,-570 -29,-824c14,-67 20,-83 76,-206c63,-137 178,-271 305,-354c69,-44 155,-88 174,-88c6,0 18,-4 28,-10c44,-24 209,-65 305,-75l58,-7l-3,-506l-3,-507l-38,-57c-143,-214 -81,-404 154,-471c74,-22 483,-59 834,-77c110,-5 229,-12 265,-15c289,-21 963,-24 1360,-5c376,18 851,59 935,82c54,14 95,36 95,51c0,7 -99,111 -220,232l-220,220l-1373,5c-1188,4 -1377,7 -1412,20c-86,32 -51,50 260,131c195,51 667,182 810,225c44,13 202,59 350,103c149,43 313,96 365,116c52,21 135,52 185,70c49,18 94,39 99,48c9,14 -3,31 -64,93c-126,127 -131,128 -375,56c-93,-27 -414,-120 -735,-212c-74,-21 -259,-73 -410,-114c-151,-42 -306,-85 -345,-96c-211,-59 -304,-45 -166,25c116,58 663,227 1266,390c381,103 440,123 476,159c16,16 29,38 29,49c0,22 -98,128 -157,168c-66,46 -105,41 -370,-45c-212,-69 -605,-182 -888,-255c-66,-17 -169,-45 -230,-61c-121,-32 -205,-39 -205,-16c0,8 19,23 43,34c42,20 602,204 797,262c58,18 132,40 165,50c33,10 137,41 230,69c247,74 245,73 261,95c33,48 6,99 -104,192c-42,36 -72,54 -90,54c-15,0 -67,-13 -117,-29c-209,-66 -275,-85 -650,-181c-110,-28 -229,-60 -265,-70c-158,-45 -270,-57 -270,-29c0,15 72,55 160,87c106,39 437,148 493,162c23,6 103,29 177,50c74,21 179,49 232,61c169,38 178,72 55,195c-97,96 -124,107 -215,80c-508,-147 -915,-230 -900,-183c14,41 329,155 643,232c159,39 195,61 195,120c0,23 -12,46 -46,86c-122,142 -131,144 -434,68c-113,-28 -234,-57 -270,-65c-75,-16 -150,-18 -150,-5c0,32 131,85 464,190c96,31 125,49 126,81c0,16 -125,144 -170,174c-30,20 -78,20 -167,2c-213,-45 -252,-26 -99,48c96,46 129,75 119,105c-11,28 -50,71 -231,254c-138,139 -181,177 -202,177c-14,0 -31,-5 -38,-12c-9,-9 -12,-232 -12,-940l0,-928l-27,-1c-258,-12 -504,133 -610,361c-75,164 -91,409 -42,683c65,373 173,651 373,963c42,64 76,125 76,133c0,25 -27,58 -82,101c-50,40 -74,46 -114,30z" id="svg_6"/>
   <path stroke="#ffffff" fill="#ffffff" d="m6025,4474c-27,-8 -59,-19 -70,-23c-72,-32 -495,-176 -615,-211c-80,-23 -212,-61 -295,-85c-82,-24 -186,-53 -230,-65c-44,-12 -94,-28 -112,-37c-37,-17 -44,-47 -14,-63c13,-7 309,-10 891,-10l871,0l24,25c44,43 34,68 -62,168c-263,273 -308,317 -322,316c-9,0 -38,-7 -66,-15z" id="svg_7"/>
   <path stroke="#ffffff" fill="#ffffff" d="m4029,3198c-18,-30 -20,-46 -17,-159c3,-115 5,-129 28,-162c13,-20 41,-45 61,-56c233,-131 1665,-181 2409,-85c165,21 242,61 275,141c21,51 21,260 0,283c-15,16 -64,17 -688,12c-713,-5 -1121,4 -1677,38c-403,25 -366,26 -391,-12z" id="svg_8"/>
   <path stroke="#ffffff" fill="#ffffff" d="m560,1870c-120,-21 -204,-59 -279,-126c-88,-79 -131,-187 -131,-332c0,-96 22,-168 73,-245c65,-96 155,-156 337,-226c231,-89 271,-119 278,-209c4,-51 1,-62 -22,-89c-36,-42 -95,-57 -204,-50c-97,6 -140,19 -258,78c-70,35 -84,39 -101,28c-24,-15 -93,-115 -124,-182l-23,-47l37,-38c45,-46 157,-104 257,-133c94,-27 271,-36 395,-20c170,23 320,124 383,258c25,54 27,67 27,198c0,138 -1,141 -33,207c-61,125 -144,187 -368,279c-184,75 -223,95 -257,133c-26,28 -28,37 -25,84c8,94 72,130 216,119c76,-5 104,-14 210,-63c62,-28 70,-29 100,-9c20,15 122,208 122,233c0,16 -80,69 -154,102c-114,52 -316,74 -456,50z" id="svg_9"/>
   <path stroke="#ffffff" fill="#ffffff" d="m1860,1823c-7,-16 -43,-116 -80,-223c-38,-107 -96,-274 -130,-370c-34,-96 -79,-224 -100,-285c-56,-160 -86,-243 -110,-305c-55,-143 -111,-323 -103,-331c5,-5 90,-8 189,-7l179,3l38,114c20,63 45,123 54,133c15,16 38,18 270,18c239,0 254,-1 270,-20c12,-14 91,-225 93,-247c0,-2 83,-3 185,-3l185,0l0,25c0,26 -70,226 -245,705c-29,80 -71,195 -93,255c-21,61 -62,173 -90,250c-29,77 -61,169 -73,205c-40,118 -23,110 -239,110l-187,0l-13,-27zm234,-485c8,-13 17,-39 21,-58c4,-19 19,-73 35,-120c79,-240 83,-253 66,-265c-16,-12 -255,-19 -288,-9c-26,8 -23,29 28,192c26,81 52,167 59,192c24,90 50,112 79,68z" id="svg_10"/>
   <path stroke="#ffffff" fill="#ffffff" d="m3036,1832c-13,-15 -18,-55 -26,-203c-20,-355 -29,-526 -46,-814c-9,-159 -17,-339 -18,-400l-1,-110l173,-3c171,-2 172,-2 181,20c5,13 14,149 20,303c23,587 22,581 57,560c10,-6 49,-97 89,-203c39,-105 74,-195 78,-198c4,-4 7,-13 7,-21c0,-7 8,-32 19,-56c10,-23 26,-64 36,-92c42,-124 69,-191 79,-197c6,-4 75,-8 152,-8l142,0l25,63c31,77 144,376 212,561c79,214 104,212 116,-6c5,-79 13,-224 18,-323c6,-99 11,-225 11,-281c0,-64 4,-104 12,-112c15,-15 355,-17 360,-2c4,14 -34,671 -77,1296c-8,128 -18,209 -27,223c-12,20 -20,21 -221,21l-207,0l-19,-31c-11,-17 -40,-88 -66,-158c-45,-122 -60,-161 -130,-341c-18,-47 -54,-140 -80,-207c-41,-109 -49,-123 -70,-123c-19,0 -28,12 -55,77c-18,43 -39,96 -46,118c-8,22 -18,49 -24,60c-13,27 -37,91 -136,355c-47,124 -92,231 -101,238c-12,9 -73,12 -218,12c-183,0 -203,-2 -219,-18z" id="svg_11"/>
   <path stroke="#ffffff" fill="#ffffff" d="m4862,1838c-7,-7 -12,-22 -12,-33c0,-20 22,-97 40,-140c5,-11 38,-108 75,-215c81,-236 124,-358 135,-385c4,-11 24,-67 43,-125c19,-58 51,-150 71,-205c20,-55 55,-154 77,-220c22,-66 47,-134 55,-152c8,-17 14,-35 14,-41c0,-19 33,-22 234,-22l203,0l13,28c7,15 25,65 41,112c15,47 51,150 79,230c29,80 56,156 60,170c4,14 25,70 45,125c87,238 268,761 279,809c5,18 2,36 -9,52c-15,24 -17,24 -180,24l-164,0l-15,-27c-7,-16 -51,-143 -96,-283c-45,-140 -97,-300 -115,-355c-18,-55 -47,-147 -64,-205c-53,-174 -54,-175 -81,-175c-21,0 -27,8 -41,50c-42,125 -152,465 -199,615c-102,326 -113,355 -128,368c-22,17 -343,17 -360,0z" id="svg_12"/>
   <path stroke="#ffffff" fill="#ffffff" d="m6510,1831c-7,-13 -10,-270 -10,-764c0,-621 2,-746 14,-756c9,-8 66,-11 182,-9l169,3l3,759c1,552 -1,763 -9,772c-9,11 -49,14 -175,14c-151,0 -164,-1 -174,-19z" id="svg_13"/>
   <path stroke="#ffffff" fill="#ffffff" d="m7092,1838c-8,-8 -12,-56 -12,-150c0,-126 2,-138 19,-148c12,-6 95,-10 199,-10c155,0 181,-2 186,-16c3,-9 6,-280 6,-604c0,-463 3,-590 13,-598c17,-14 325,-18 338,-5c7,7 10,209 10,579c0,313 4,585 8,604l7,35l179,3c149,2 182,5 197,19c16,14 18,34 18,148c0,88 -4,135 -12,143c-17,17 -1139,17 -1156,0z" id="svg_14"/>
   <path stroke="#ffffff" fill="#ffffff" d="m8462,1838c-9,-9 -12,-192 -12,-762c0,-413 4,-757 9,-764c6,-11 104,-13 492,-12c315,0 487,4 494,11c5,5 12,66 14,135c3,109 1,128 -15,145c-16,18 -32,19 -299,19c-227,0 -285,3 -301,14c-17,13 -19,29 -22,144c-3,111 -1,131 14,146c15,15 41,17 242,15c197,-1 227,0 237,14c15,21 19,252 4,278c-9,18 -25,19 -234,19c-280,0 -265,-9 -265,148c0,77 4,114 14,127c13,18 29,19 296,16c256,-2 283,-1 301,15c17,15 19,32 19,149c0,88 -4,135 -12,143c-17,17 -959,17 -976,0z" id="svg_15"/>
   <path stroke="#ffffff" fill="#ffffff" d="m9672,1838c-7,-7 -12,-17 -12,-24c0,-28 72,-149 287,-481c86,-133 126,-205 130,-230c4,-35 -4,-51 -91,-183c-53,-80 -101,-154 -106,-165c-6,-11 -39,-65 -74,-120c-126,-195 -180,-288 -180,-309c-1,-18 6,-22 54,-26c30,-3 117,-4 193,-2l137,3l24,37c12,20 49,80 81,132c32,52 73,118 92,147c18,28 33,54 33,57c0,14 63,96 74,96c18,0 47,-35 92,-112c22,-39 46,-68 55,-68c44,0 149,112 165,178c9,33 17,27 39,-26c25,-60 97,-132 157,-157c27,-11 48,-22 48,-25c0,-3 -21,-14 -48,-25c-60,-25 -132,-97 -157,-157c-11,-27 -22,-48 -25,-48c-3,0 -13,19 -23,43c-20,49 -69,112 -100,129c-21,11 -21,10 -6,-13c9,-13 35,-56 58,-96c24,-40 50,-78 58,-85c12,-9 57,-13 162,-13l146,0l3,92c3,103 13,79 -106,263c-121,188 -206,317 -236,360c-43,62 -43,118 1,180c17,25 70,108 118,185c47,77 117,189 155,250c66,103 70,113 70,167l0,58l-165,0c-189,0 -185,2 -235,-97c-13,-26 -36,-66 -51,-88c-14,-22 -37,-60 -51,-85c-58,-104 -84,-140 -105,-146c-12,-3 -26,-3 -32,0c-9,6 -90,132 -193,300c-76,126 -55,116 -253,116c-120,0 -175,-4 -183,-12z" id="svg_16"/>
  </g>
  <path fill="#ffffff" stroke="#ffffff" opacity="NaN" d="m1061.33236,887.9991c0,0 0.33333,-10.33333 2.66667,-4.33333c2.33333,6 15.66666,1.66667 16.66666,0.66667c1,-1 5,-15.33332 4.66694,-15.66634c0.33305,0.33301 -7.00028,3.66634 -7.33333,3.33333" id="svg_34"/>
  <path fill="#ffffff" stroke="#ffffff" opacity="NaN" d="m1043.60659,864.85249l17.37702,32.52456" id="svg_38"/>
  <path fill="#ffffff" stroke="#ffffff" d="m1043.27871,862.88526l16.39343,31.2131l21.31148,-19.67213l-7.86885,-18.68852c0.00002,0.26231 16.72133,19.60657 16.06559,20.26231c-0.65574,0.65574 -17.70492,13.77049 -17.70494,13.50818c0.00002,0.26231 1.63936,-4.32785 1.96723,-4.65572c0.32787,-0.32787 -2.29508,8.85246 -2.2951,8.59015c0.00002,0.26231 -8.85244,-3.67212 -9.83605,-3.34425c-0.98361,0.32787 9.83607,-5.2459 9.83605,-5.50821c0.00002,0.26231 0.65575,-3.67211 0.98362,-3.99998c0.32787,-0.32787 -11.14754,-38.36066 -11.14756,-38.62297" id="svg_39"/>
  <rect fill="#ffffff" stroke="#ffffff" x="1060.32789" y="890.09838" width="9.5082" height="5.2459" id="svg_40"/>
  <rect fill="#ffffff" stroke="#ffffff" x="1060.32789" y="886.16395" width="7.86885" height="6.55738" id="svg_41"/>
  <rect fill="#ffffff" stroke="#ffffff" x="1059.01641" y="863.541" width="22.29508" height="18.03279" id="svg_42"/>
  <rect fill="#ffffff" stroke="#ffffff" x="1057.70494" y="846.81969" width="13.11475" height="21.96721" id="svg_44"/>
  <rect fill="#ffffff" stroke="#ffffff" x="1064.91805" y="858.62297" width="11.80328" height="11.47541" id="svg_46"/>
 </g>

</svg>