<?xml version="1.0" standalone="no"?>
<!DOCTYPE svg PUBLIC "-//W3C//DTD SVG 20010904//EN"
 "http://www.w3.org/TR/2001/REC-SVG-20010904/DTD/svg10.dtd">
<svg version="1.0" xmlns="http://www.w3.org/2000/svg"
 width="980.000000pt" height="656.000000pt" viewBox="0 0 980.000000 656.000000"
 preserveAspectRatio="xMidYMid meet">

<g transform="translate(0.000000,656.000000) scale(0.100000,-0.100000)"
   fill="#000" stroke="#FFF" stroke-width="10">
<path d="M0 3280 l0 -3280 4900 0 4900 0 0 3280 0 3280 -4900 0 -4900 0 0
-3280z m5405 2790 c50 -5 124 -14 165 -20 41 -6 95 -13 119 -16 32 -4 54 -15
77 -38 29 -29 32 -38 39 -120 10 -120 12 -119 -170 -110 -77 3 -167 10 -200
16 -96 16 -886 22 -1050 8 -77 -7 -227 -14 -332 -17 l-193 -5 0 105 0 105 34
30 c28 24 46 30 105 36 39 4 85 12 101 18 74 25 1064 32 1305 8z m-2269 -99
c146 -56 244 -158 549 -571 66 -90 186 -247 267 -349 82 -102 151 -191 155
-196 5 -6 35 -41 68 -79 33 -38 96 -113 140 -167 44 -53 122 -146 174 -206 51
-59 125 -146 165 -192 39 -46 127 -148 196 -226 69 -78 161 -184 205 -235 95
-110 100 -115 191 -216 82 -91 162 -181 218 -245 21 -24 96 -105 166 -179 70
-74 151 -162 180 -195 29 -33 92 -103 140 -155 48 -52 129 -142 180 -200 51
-58 123 -139 160 -180 37 -41 91 -104 120 -140 29 -36 58 -69 64 -75 6 -5 34
-37 61 -70 28 -33 53 -62 57 -65 3 -3 29 -34 56 -70 28 -36 58 -73 66 -83 17
-18 22 -67 7 -67 -9 0 -132 113 -336 309 -199 191 -1017 1014 -1170 1176 -82
88 -202 213 -266 280 -112 116 -151 158 -384 409 -60 66 -128 138 -150 162
-22 23 -85 91 -140 151 -369 401 -848 874 -1026 1012 -24 19 -105 96 -180 171
-118 117 -141 146 -173 213 -46 98 -48 148 -7 205 34 47 41 51 101 73 61 22
87 22 146 0z m2219 -281 c264 -11 503 -24 530 -30 28 -5 91 -14 140 -20 93 -9
168 -38 184 -69 4 -9 13 -37 19 -62 13 -52 -3 -137 -35 -186 -17 -25 -18 -73
-17 -665 0 -429 4 -642 11 -649 7 -7 20 -6 44 5 99 43 383 90 534 90 106 -1
282 -27 325 -49 14 -7 40 -16 57 -20 18 -3 35 -11 39 -16 3 -5 20 -16 37 -23
59 -26 197 -177 197 -215 0 -9 7 -26 15 -38 22 -32 38 -174 30 -272 -25 -305
-285 -647 -679 -893 -48 -31 -58 -33 -86 -18 -32 17 -12 46 84 123 167 136
307 282 400 420 73 109 108 190 147 342 18 68 6 202 -25 269 -27 59 -124 166
-150 166 -8 0 -19 6 -25 14 -7 8 -27 18 -44 22 -18 3 -45 13 -62 22 -65 33
-428 33 -540 -1 -27 -8 -72 -19 -100 -25 -101 -21 -171 -44 -190 -63 -20 -19
-20 -33 -20 -583 0 -311 -3 -568 -7 -572 -8 -7 -22 6 -87 82 -19 21 -73 82
-122 134 -128 139 -139 152 -167 188 -24 32 -24 33 -6 53 10 11 47 33 83 50
191 87 221 109 149 109 -29 0 -49 -5 -193 -51 -33 -10 -79 -21 -103 -25 -41
-6 -46 -5 -88 37 -25 24 -53 58 -63 75 l-18 30 51 27 c28 15 67 31 86 36 94
27 151 48 251 95 31 14 60 26 66 26 5 0 19 13 31 29 23 32 13 46 -20 29 -10
-5 -43 -13 -73 -19 -30 -5 -67 -16 -82 -24 -16 -8 -39 -15 -53 -15 -14 0 -45
-9 -69 -20 -24 -11 -52 -20 -62 -20 -10 0 -40 -8 -66 -19 -60 -23 -133 -34
-160 -24 -28 11 -115 112 -111 130 3 14 68 41 163 68 98 27 296 105 345 136 8
5 33 18 55 28 l40 19 -29 11 c-25 10 -40 9 -85 -7 -120 -41 -188 -61 -224 -68
-20 -3 -40 -10 -42 -15 -3 -4 -27 -11 -53 -15 -26 -4 -69 -15 -95 -25 -26 -11
-58 -19 -70 -19 -13 0 -32 -7 -43 -15 -31 -23 -42 -18 -105 46 -67 71 -76 103
-31 120 15 5 45 19 68 30 22 10 45 19 51 19 6 0 24 6 40 14 15 8 66 29 113 46
47 18 90 36 95 40 6 4 24 11 42 14 17 4 37 14 44 22 6 8 18 14 26 14 9 0 32 9
52 19 20 11 63 31 96 46 33 15 78 35 101 46 22 10 45 19 51 19 6 0 16 7 23 15
7 8 27 19 44 23 36 10 42 35 9 40 -22 3 -146 -34 -210 -64 -17 -8 -37 -14 -45
-14 -7 0 -30 -9 -51 -20 -20 -11 -44 -20 -53 -20 -9 0 -28 -7 -42 -15 -15 -8
-46 -22 -69 -30 -103 -36 -130 -46 -158 -59 -100 -45 -127 -56 -138 -56 -6 -1
-30 -9 -52 -20 -22 -11 -47 -20 -55 -20 -8 0 -28 -7 -44 -15 -37 -20 -52 -19
-73 3 -71 75 -94 103 -103 126 -9 24 -7 28 16 36 14 6 29 10 33 10 4 0 24 9
46 20 22 11 46 20 55 20 9 0 24 6 35 13 11 8 38 19 60 25 66 18 138 43 165 56
14 8 39 16 55 20 17 4 44 13 60 20 17 8 64 26 105 42 41 15 93 35 116 45 22
11 46 19 52 19 7 0 29 9 49 20 21 11 45 20 54 20 9 0 22 6 28 14 7 8 27 18 44
21 18 4 40 14 49 22 9 9 32 18 50 22 19 4 34 14 36 24 5 22 -51 23 -93 1 -16
-8 -48 -19 -70 -24 -48 -11 -153 -46 -178 -61 -10 -5 -37 -14 -60 -19 -43 -9
-105 -29 -187 -60 -25 -10 -60 -22 -77 -29 -18 -6 -48 -16 -65 -23 -88 -31
-140 -48 -223 -74 -49 -15 -94 -31 -100 -35 -5 -4 -40 -15 -77 -25 l-68 -18
-41 39 c-22 22 -54 59 -70 83 -27 38 -28 43 -12 48 10 3 41 13 68 24 28 10 91
30 140 44 50 15 104 31 120 37 17 6 53 17 80 25 75 20 146 44 180 60 17 7 46
17 65 20 19 4 44 12 55 19 11 7 40 17 65 23 73 18 221 69 296 103 23 11 45 19
50 19 5 0 31 9 59 19 27 11 62 23 78 26 15 3 27 12 27 20 0 11 -12 15 -47 15
-42 0 -84 -10 -208 -52 -16 -6 -57 -16 -90 -23 -33 -7 -78 -20 -100 -28 -22
-8 -74 -24 -115 -36 -41 -12 -88 -27 -105 -32 -37 -14 -146 -47 -200 -61 -36
-10 -65 -19 -175 -58 -19 -7 -63 -21 -97 -31 -169 -51 -199 -60 -213 -65 -9
-3 -34 14 -62 42 -48 48 -74 94 -65 116 2 7 47 26 98 41 52 15 108 32 124 38
17 6 50 17 75 25 69 20 141 44 180 59 19 7 64 21 100 30 88 22 159 41 195 54
57 20 130 42 180 56 63 17 141 44 180 61 17 7 44 16 60 20 17 4 46 15 65 26
19 10 40 18 47 18 7 0 30 9 50 20 21 11 46 20 56 20 26 0 59 19 52 31 -10 15
-77 10 -138 -11 -31 -11 -67 -20 -79 -20 -13 0 -35 -6 -50 -14 -15 -8 -42 -17
-60 -21 -18 -3 -60 -15 -93 -25 -33 -10 -93 -28 -132 -39 -40 -12 -103 -30
-140 -40 -165 -47 -221 -64 -271 -82 -29 -10 -63 -19 -75 -19 -12 0 -34 -6
-49 -14 -15 -8 -42 -17 -60 -21 -18 -3 -60 -15 -93 -25 -33 -10 -94 -28 -135
-41 -41 -12 -97 -29 -123 -38 -34 -11 -53 -12 -64 -5 -28 18 -101 118 -105
144 -3 22 2 25 47 36 28 6 59 15 70 21 11 6 44 16 73 23 28 6 54 16 57 20 3 5
24 11 48 15 23 4 53 13 67 20 14 7 45 16 69 20 24 4 62 16 85 26 23 10 54 19
69 19 15 0 40 6 55 14 15 7 45 16 67 20 38 7 132 34 200 57 17 6 55 17 85 24
57 13 143 38 195 57 17 6 55 16 85 24 30 7 77 20 104 28 27 9 60 16 73 16 13
0 43 9 66 19 23 11 63 22 90 26 26 4 47 11 47 15 0 7 -137 22 -170 18 -8 0
-440 0 -959 0 l-944 2 -33 35 c-18 20 -72 88 -120 151 -71 96 -84 118 -73 128
23 21 177 36 484 47 160 6 362 14 450 18 249 12 243 12 750 -9z m-131 -456
c56 -8 59 -18 9 -32 -21 -6 -60 -18 -88 -27 -56 -18 -143 -43 -255 -75 -118
-33 -210 -60 -275 -81 -33 -10 -69 -19 -80 -19 -11 0 -33 -7 -48 -15 -15 -8
-45 -17 -65 -20 -20 -4 -63 -15 -95 -26 -85 -28 -117 -25 -154 14 -71 76 -183
226 -183 246 0 11 1 22 3 22 16 10 1170 21 1231 13z m-1879 -159 c19 -19 35
-41 35 -49 0 -9 -19 -44 -42 -80 -65 -97 -168 -287 -168 -308 0 -6 -7 -24 -14
-41 -28 -61 -59 -163 -73 -242 -8 -44 -18 -100 -23 -125 -18 -91 -11 -239 14
-340 29 -112 53 -163 107 -224 74 -84 177 -139 291 -157 52 -8 72 -8 83 1 13
11 15 107 15 671 0 502 3 660 12 665 18 11 309 -295 306 -321 -2 -10 -14 -25
-28 -31 -14 -7 -56 -27 -93 -44 -51 -24 -66 -35 -58 -43 16 -16 95 -11 131 8
16 8 57 18 90 22 l60 6 65 -69 c36 -38 65 -72 65 -77 0 -10 -100 -57 -123 -57
-10 0 -35 -9 -57 -20 -22 -11 -47 -20 -57 -20 -10 0 -27 -6 -38 -14 -11 -7
-38 -19 -60 -26 -47 -15 -93 -56 -79 -70 6 -6 30 -5 64 4 75 20 173 44 245 61
33 8 86 21 118 30 37 10 66 13 81 8 23 -8 126 -118 126 -134 0 -12 -70 -46
-117 -58 -52 -14 -154 -49 -176 -62 -10 -5 -37 -14 -60 -19 -54 -11 -155 -46
-189 -65 -14 -8 -35 -15 -45 -15 -11 0 -28 -6 -38 -14 -18 -13 -18 -14 4 -25
24 -13 71 -9 156 14 70 19 168 43 247 60 37 7 75 18 85 23 10 6 40 13 68 17
27 5 64 14 82 21 64 27 85 20 152 -52 33 -36 58 -70 55 -76 -10 -15 -86 -47
-114 -48 -14 0 -43 -9 -65 -20 -22 -11 -49 -20 -60 -20 -11 0 -38 -9 -60 -20
-22 -11 -47 -19 -55 -20 -8 0 -67 -18 -130 -40 -63 -22 -122 -40 -130 -40 -8
-1 -33 -9 -55 -20 -22 -11 -48 -19 -59 -20 -10 0 -35 -8 -55 -19 -20 -10 -49
-24 -64 -30 -15 -6 -25 -16 -22 -21 9 -14 55 -12 86 3 14 8 56 17 94 21 37 4
76 11 86 17 10 5 49 16 86 24 80 16 171 40 233 59 25 8 65 18 90 22 25 3 57
13 72 20 15 8 36 14 48 14 11 0 46 9 77 20 90 32 100 29 170 -47 l63 -67 -31
-20 c-17 -10 -58 -27 -92 -36 -34 -10 -75 -22 -92 -28 -16 -6 -64 -20 -105
-32 -41 -12 -97 -30 -125 -40 -27 -10 -65 -22 -83 -25 -18 -4 -45 -13 -60 -21
-15 -8 -33 -14 -41 -14 -15 0 -159 -45 -206 -65 -16 -7 -48 -16 -69 -20 -21
-3 -48 -12 -60 -20 -12 -7 -37 -16 -56 -19 -46 -8 -56 -16 -64 -46 -3 -14 -3
-19 0 -12 3 7 25 12 53 12 26 0 74 7 106 16 33 9 85 22 115 29 141 33 197 48
228 61 18 8 43 14 55 14 12 1 40 8 62 16 22 8 65 21 95 29 119 30 197 53 217
63 12 7 31 12 42 12 12 0 48 9 82 21 106 37 122 33 196 -46 73 -77 73 -80 -11
-108 -23 -8 -63 -22 -91 -31 -66 -22 -137 -44 -205 -62 -30 -8 -64 -19 -75
-25 -11 -5 -45 -16 -75 -24 -30 -7 -84 -23 -120 -34 -36 -11 -94 -29 -130 -40
-36 -11 -78 -24 -95 -30 -56 -19 -130 -42 -180 -55 -49 -14 -64 -19 -170 -56
-105 -37 -114 -42 -108 -56 7 -19 90 -18 150 2 26 9 73 23 103 30 30 7 87 22
125 33 39 11 90 25 115 32 25 6 65 18 90 26 25 8 70 20 100 28 66 17 170 46
265 76 39 12 102 30 140 41 39 11 99 28 135 38 36 10 83 26 105 34 65 25 76
21 148 -54 61 -62 75 -90 46 -90 -6 0 -29 -8 -52 -19 -23 -10 -58 -22 -77 -26
-19 -4 -46 -13 -60 -20 -14 -7 -46 -15 -72 -19 -26 -4 -50 -11 -53 -16 -3 -5
-31 -14 -63 -20 -31 -7 -61 -16 -67 -20 -5 -4 -35 -15 -65 -23 -30 -9 -86 -25
-125 -37 -98 -30 -190 -57 -260 -75 -33 -8 -80 -22 -105 -30 -25 -8 -63 -17
-85 -21 -22 -4 -51 -12 -65 -19 -14 -7 -44 -16 -67 -20 -24 -4 -45 -11 -48
-15 -3 -5 -31 -14 -63 -20 -31 -6 -66 -13 -78 -15 -11 -3 -25 -15 -31 -28
l-11 -24 131 -11 c152 -14 1216 -18 1597 -7 l246 8 152 -153 c83 -84 149 -156
146 -161 -2 -4 -21 -11 -42 -14 -20 -3 -75 -12 -122 -20 -47 -9 -161 -20 -255
-26 -93 -6 -233 -14 -310 -19 -176 -11 -631 -11 -790 0 -66 5 -223 13 -350 19
-126 6 -270 18 -320 26 -49 7 -117 17 -150 20 -88 9 -168 40 -196 78 -20 27
-24 44 -24 102 0 64 3 74 35 120 l35 50 3 345 c2 274 0 349 -10 363 -10 13
-36 21 -87 28 -41 5 -79 13 -85 18 -6 5 -26 12 -44 16 -76 16 -201 94 -264
164 -206 229 -233 632 -73 1071 17 49 51 126 65 150 5 8 21 40 36 70 15 30 51
91 79 135 29 44 57 90 64 103 18 33 55 28 96 -13z m1988 -2068 c38 -20 283
-268 289 -293 5 -20 1 -21 -106 -28 -164 -9 -1189 -7 -1204 3 -9 6 2 12 35 20
26 7 52 16 58 21 6 5 37 15 70 24 125 32 181 48 210 61 17 7 45 16 63 20 18 4
45 13 60 21 15 8 32 14 39 14 6 0 58 16 115 35 57 20 123 42 148 49 25 8 59
18 75 24 17 6 50 17 75 25 25 8 46 15 46 16 1 0 13 -5 27 -12z m-1033 -879
c58 -7 291 -11 600 -12 424 0 535 2 691 18 102 11 198 16 214 12 l28 -7 -6
-103 c-4 -57 -11 -115 -16 -128 -14 -36 -120 -66 -282 -78 -74 -6 -172 -14
-219 -19 -106 -12 -598 -12 -745 -1 -60 5 -182 13 -270 19 -88 6 -202 21 -253
32 -90 21 -93 23 -112 60 -24 46 -29 213 -7 223 17 8 262 -2 377 -16z m-2510
-927 c36 -13 72 -28 80 -35 8 -7 23 -16 33 -19 18 -7 25 -61 8 -72 -5 -3 -17
-29 -25 -58 -22 -76 -49 -88 -111 -53 -56 31 -157 52 -208 42 -53 -10 -77 -35
-84 -84 -5 -40 -3 -45 34 -81 22 -21 60 -45 84 -53 24 -9 64 -23 89 -32 82
-30 170 -83 203 -124 51 -61 69 -114 69 -202 1 -74 -2 -92 -25 -135 -42 -79
-75 -108 -172 -156 -46 -22 -62 -24 -190 -24 -114 0 -149 4 -185 18 -89 37
-152 72 -166 93 -13 19 -11 27 14 75 15 30 36 66 46 82 l19 27 46 -26 c52 -29
191 -74 230 -74 39 1 105 34 129 65 54 68 4 129 -154 189 -169 65 -227 103
-276 178 -31 50 -32 55 -32 157 -1 93 2 112 24 155 22 43 114 136 135 136 4 0
21 6 38 14 50 23 66 25 177 22 78 -2 122 -8 170 -25z m901 -22 c12 -17 27 -49
35 -72 7 -23 25 -73 39 -112 15 -38 33 -88 40 -110 8 -22 26 -71 40 -110 15
-38 33 -88 40 -110 8 -22 26 -71 40 -110 15 -38 33 -88 40 -110 8 -22 26 -71
40 -110 47 -125 67 -197 57 -207 -5 -5 -60 -7 -122 -6 l-113 3 -29 90 c-15 50
-36 96 -45 103 -19 13 -349 18 -370 4 -14 -9 -48 -94 -57 -144 -4 -22 -15 -42
-26 -48 -10 -5 -68 -10 -129 -10 l-111 0 0 30 c0 16 6 44 14 62 7 18 22 58 33
88 11 30 25 69 30 85 6 17 17 46 23 65 7 19 20 55 30 80 10 25 23 61 30 80 6
19 23 64 37 100 13 36 28 79 32 95 5 17 15 46 23 65 9 19 21 51 28 70 6 19 23
64 37 100 13 36 29 81 34 100 18 60 40 70 156 70 l102 0 22 -31z m842 7 c14
-13 29 -37 32 -53 4 -15 15 -46 26 -69 10 -23 19 -46 19 -53 0 -6 9 -28 20
-48 11 -21 20 -45 20 -53 0 -9 7 -25 15 -36 8 -12 19 -39 24 -60 27 -105 88
-247 104 -241 8 2 31 58 76 182 48 133 76 203 92 241 11 22 19 48 19 57 0 9 4
18 9 22 5 3 17 27 26 54 24 72 43 81 172 81 59 0 115 -4 123 -10 10 -6 18 -47
26 -147 7 -76 17 -190 23 -253 6 -63 16 -196 22 -295 5 -99 14 -216 18 -260
11 -131 17 -125 -109 -125 -93 0 -109 2 -115 17 -10 27 -32 270 -40 444 -4 86
-11 162 -16 170 -7 11 -14 8 -34 -16 -14 -16 -27 -41 -30 -55 -4 -14 -15 -44
-26 -68 -10 -23 -19 -48 -19 -55 0 -7 -9 -29 -20 -50 -11 -20 -20 -45 -20 -55
0 -9 -9 -34 -20 -55 -11 -20 -20 -43 -20 -51 0 -7 -14 -43 -30 -80 l-30 -66
-89 0 c-99 0 -104 3 -126 72 -8 24 -26 75 -40 113 -15 39 -32 90 -39 115 -7
25 -18 54 -24 65 -12 21 -32 74 -58 158 -15 49 -29 59 -38 30 -6 -20 -21 -207
-36 -452 -6 -90 -13 -167 -16 -172 -3 -5 -54 -9 -115 -9 l-109 0 -1 28 c-2 86
3 205 11 257 5 33 14 188 20 345 13 333 22 414 46 441 15 17 31 19 134 19 110
0 119 -1 143 -24z m1205 1 c12 -13 29 -48 38 -78 8 -30 22 -76 30 -104 8 -27
21 -64 29 -82 8 -17 15 -39 15 -48 0 -9 8 -37 19 -63 10 -26 31 -87 46 -137
15 -49 33 -103 40 -120 7 -16 16 -47 19 -67 4 -21 11 -40 16 -43 11 -7 70 109
70 137 0 10 6 32 14 50 17 39 41 111 62 188 9 30 20 60 24 65 5 6 11 28 15 50
4 22 13 49 20 60 7 11 16 36 19 55 4 19 19 63 33 98 l26 62 105 0 c141 0 148
-6 115 -98 -14 -37 -31 -85 -38 -107 -8 -22 -26 -71 -40 -110 -15 -38 -33 -88
-40 -110 -8 -22 -26 -71 -40 -110 -15 -38 -33 -90 -41 -115 -8 -25 -21 -59
-29 -77 -8 -17 -15 -39 -15 -50 0 -10 -7 -28 -15 -39 -8 -12 -19 -39 -24 -60
-18 -69 -52 -157 -73 -186 l-19 -28 -124 0 -123 0 -25 44 c-13 24 -28 61 -32
82 -4 22 -11 44 -17 51 -5 7 -16 34 -23 60 -7 26 -25 80 -40 118 -14 39 -31
88 -37 110 -6 22 -15 45 -20 52 -5 7 -16 34 -23 60 -7 26 -25 80 -40 118 -48
128 -66 180 -76 215 -5 19 -16 46 -23 60 -21 40 -27 79 -16 100 10 18 21 20
114 20 94 0 104 -2 124 -23z m1156 1 c14 -20 16 -86 16 -520 0 -303 -4 -507
-10 -523 l-10 -26 -112 3 -113 3 -3 530 c-2 489 -1 531 15 543 11 7 51 12 109
12 85 0 94 -2 108 -22z m958 5 c14 -13 18 -31 18 -89 0 -109 6 -104 -126 -104
-169 0 -154 45 -154 -448 0 -304 -3 -411 -12 -420 -8 -8 -48 -12 -115 -12
-102 0 -104 0 -113 26 -6 15 -10 191 -10 428 0 321 -3 406 -13 414 -8 7 -67
13 -138 14 l-124 3 -3 82 c-5 135 -43 123 395 123 336 0 378 -2 395 -17z m838
-3 c6 -11 10 -57 8 -103 l-3 -82 -200 -5 c-110 -3 -206 -9 -212 -13 -9 -6 -13
-37 -13 -97 0 -78 2 -91 19 -100 11 -5 86 -10 170 -10 175 0 171 3 171 -105 0
-107 4 -105 -168 -105 -193 0 -192 1 -192 -120 0 -123 -6 -120 232 -120 175 0
188 -1 198 -19 13 -25 13 -131 0 -165 l-10 -26 -329 0 c-291 0 -330 2 -335 16
-11 28 -7 1034 4 1055 10 18 25 19 330 19 310 0 320 -1 330 -20z m416 14 c21
-6 67 -73 129 -192 36 -68 73 -122 84 -122 12 0 131 195 145 236 3 11 20 34
36 52 31 32 31 32 131 32 87 0 99 -2 101 -17 5 -60 -7 -87 -92 -218 -22 -33
-49 -76 -60 -95 -11 -19 -28 -47 -38 -62 -39 -60 -72 -121 -72 -134 0 -18 38
-90 56 -105 8 -6 14 -15 14 -20 0 -5 19 -37 42 -71 105 -159 118 -179 118
-185 0 -4 7 -14 16 -24 11 -12 16 -39 17 -86 l2 -68 -96 -3 c-111 -3 -103 -9
-183 120 -22 37 -61 98 -85 137 -24 39 -48 71 -53 71 -27 0 -52 -29 -103 -118
-30 -53 -72 -122 -94 -152 l-38 -55 -126 -3 c-70 -1 -127 1 -127 5 1 14 108
195 157 265 18 26 33 50 33 53 0 3 8 18 19 33 114 167 127 199 98 248 -6 12
-22 39 -35 60 -27 47 -38 64 -78 124 -16 25 -45 70 -63 100 -17 30 -47 79 -65
109 -51 84 -45 91 83 91 58 0 116 -3 127 -6z"/>
<path d="M3061 5797 c-6 -6 -11 -25 -11 -43 0 -33 51 -108 115 -169 159 -151
244 -215 285 -215 50 0 32 55 -51 151 -26 30 -74 86 -107 126 -34 39 -82 88
-106 108 -49 40 -107 60 -125 42z"/>
<path d="M6013 5109 c-13 -5 -23 -13 -23 -19 0 -15 62 -9 67 6 5 16 -18 23
-44 13z"/>
<path d="M6015 4821 c-3 -5 -1 -12 5 -16 12 -7 30 2 30 16 0 12 -27 12 -35 0z"/>
<path d="M2562 867 c-12 -6 -25 -22 -28 -36 -3 -14 -12 -46 -20 -71 -8 -25
-21 -65 -29 -90 -7 -25 -19 -60 -26 -78 -23 -56 -8 -67 106 -70 133 -4 145 9
106 113 -32 86 -43 118 -56 174 -17 65 -23 72 -53 58z"/>
</g>
</svg>
